# xmcd
#
# Track frame offsets:
#	150
#	12912
#	25580
#	44280
#	56744
#	76435
#	89818
#	107540
#	120235
#	134082
#	147805
#	164684
#
# Disc length: 2404 seconds
#
# Revision: 1
# Processed by: cddbd v1.5.2PL0 Copyright (c) Steve Scherf et al.
# Submitted via: audiograbber 1.83.01
#
DISCID=9f09620c
DTITLE=June Carter Cash - Ring of Fire - the best of June Carter Cash
DYEAR=2005
DGENRE=Country
TTITLE0=Ring of Fire
TTITLE1=Keep on the Sunnyside
TTITLE2=Will the Circle Be Unbroken
TTITLE3=Far Side Banks of Jorday
TTITLE4=Wildwood Flower
TTITLE5=Hold Fast to the Right
TTITLE6=Will You Miss Me When I'm Gone?
TTITLE7=Jackson
TTITLE8=If I Were A Carpenter
TTITLE9=Don't Forget This Song
TTITLE10=Cuban  Soldier
TTITLE11=The Heel
EXTD=
EXTT0=
EXTT1=
EXTT2=
EXTT3=
EXTT4=
EXTT5=
EXTT6=
EXTT7=
EXTT8=
EXTT9=
EXTT10=
EXTT11=
PLAYORDER=
